<svg width="159" height="160" viewBox="0 0 159 160" fill="none" xmlns="http://www.w3.org/2000/svg">
<path d="M88.3971 20.5739L128.317 2.06536C146.305 -6.28741 164.994 12.2211 156.774 30.2514L138.122 71.1689C135.579 76.7987 135.579 83.2381 138.122 88.8311L156.774 129.749C164.994 147.779 146.305 166.287 128.317 157.935L88.3971 139.426C82.6837 136.777 76.0856 136.777 70.3721 139.426L30.4519 157.935C12.4638 166.287 -6.2245 147.779 1.99545 129.749L20.647 88.8311C23.1904 83.2013 23.1904 76.7619 20.647 71.1689L1.99545 30.2514C-6.2245 12.2211 12.4638 -6.28741 30.4519 2.06536L70.3721 20.5739C76.0856 23.2233 82.6837 23.2233 88.3971 20.5739Z" fill="#FFE4B3"/>
</svg>
