<svg width="160" height="160" viewBox="0 0 160 160" fill="none" xmlns="http://www.w3.org/2000/svg">
<path d="M87.2148 0C97.8545 0 106.48 8.62504 106.48 19.2646V54.5732H139.848C150.487 54.5735 159.112 63.1992 159.112 73.8389V87.291C159.112 97.9306 150.487 106.555 139.848 106.556H106.48V140.735C106.48 151.375 97.8545 160 87.2148 160H72.7988C62.1593 160 53.5344 151.375 53.5342 140.735V106.556H20.1709C9.53121 106.556 0.906335 97.9307 0.90625 87.291V73.8389C0.90625 63.1991 9.53116 54.5733 20.1709 54.5732H53.5342V19.2646C53.5344 8.62517 62.1593 0.000223692 72.7988 0H87.2148Z" fill="#A4B99A"/>
</svg>
